<mxfile host="app.diagrams.net" modified="2023-10-11T02:01:36.169Z" agent="Mozilla/5.0 (Windows NT 10.0; Win64; x64) AppleWebKit/537.36 (KHTML, like Gecko) Chrome/116.0.0.0 Safari/537.36 OPR/102.0.0.0" version="22.0.4" etag="MMKT0ITy2ZNsq4K6rNzF" type="github">
  <diagram name="PÃ¡gina-1" id="VXzVLETjLe3AFZLujnjv">
    <mxGraphModel>
      <root>
        <mxCell id="0" />
        <mxCell id="1" parent="0" />
      </root>
    </mxGraphModel>
  </diagram>
</mxfile>
